<svg width="24" height="24" viewBox="0 0 24 24" fill="none" xmlns="http://www.w3.org/2000/svg">
    <path fill-rule="evenodd" clip-rule="evenodd" d="M5 1C5 0.447715 5.44772 0 6 0H18C18.5523 0 19 0.447715 19 1V6C19 6.55228 18.5523 7 18 7C17.4477 7 17 6.55228 17 6V2H7V9C7 9.55229 6.55228 10 6 10C5.44772 10 5 9.55229 5 9V1ZM13 22H11V12C11 11.4477 10.5523 11 10 11H1C0.447715 11 0 11.4477 0 12V23C0 23.5523 0.447715 24 1 24H10H14H23C23.5523 24 24 23.5523 24 23V9C24 8.44771 23.5523 8 23 8H14C13.4477 8 13 8.44771 13 9V22ZM2 22V13H9V22H2ZM22 10H15V22H22V10ZM18 12C17.4477 12 17 12.4477 17 13C17 13.5523 17.4477 14 18 14H19C19.5523 14 20 13.5523 20 13C20 12.4477 19.5523 12 19 12H18ZM17 16C17 15.4477 17.4477 15 18 15H19C19.5523 15 20 15.4477 20 16C20 16.5523 19.5523 17 19 17H18C17.4477 17 17 16.5523 17 16ZM18 18C17.4477 18 17 18.4477 17 19C17 19.5523 17.4477 20 18 20H19C19.5523 20 20 19.5523 20 19C20 18.4477 19.5523 18 19 18H18ZM4 19C4 18.4477 4.44772 18 5 18H6C6.55228 18 7 18.4477 7 19C7 19.5523 6.55228 20 6 20H5C4.44772 20 4 19.5523 4 19ZM5 15C4.44772 15 4 15.4477 4 16C4 16.5523 4.44772 17 5 17H6C6.55228 17 7 16.5523 7 16C7 15.4477 6.55228 15 6 15H5Z" fill="#1F2937"/>
</svg>
